<svg xmlns="http://www.w3.org/2000/svg" width="16" height="16">
  <path d="M 1.5,2 C 0.669,2 0,2.669 0,3.5 v 3 C 0,7.331 0.669,8 1.5,8 2.331,8 3,7.331 3,6.5 v -3 C 3,2.669 2.331,2 1.5,2 Z m 7,0 C 7.669,2 7,2.669 7,3.5 v 3 C 7,7.331 7.669,8 8.5,8 9.3310003,8 10,7.331 10,6.5 v -3 C 10,2.669 9.3310003,2 8.5,2 Z m -7,1 C 1.777,3 2,3.223 2,3.5 v 3 C 2,6.777 1.777,7 1.5,7 1.223,7 1,6.777 1,6.5 v -3 C 1,3.223 1.223,3 1.5,3 Z m 7,0 C 8.777,3 9,3.223 9,3.5 v 3 C 9,6.777 8.777,7 8.5,7 8.223,7 8,6.777 8,6.5 v -3 C 8,3.223 8.223,3 8.5,3 Z M 5,6 C 4.446,6 4,6.446 4,7 4,7.554 4.446,8 5,8 5.554,8 6,7.554 6,7 6,6.446 5.554,6 5,6 Z m 7,0 c -0.554,0 -1,0.446 -1,1 0,0.554 0.446,1 1,1 0.554,0 1,-0.446 1,-1 C 13,6.446 12.554,6 12,6 Z M 1.5,9 C 0.669,9 0,9.669 0,10.5 v 3 C 0,14.331 0.669,15 1.5,15 2.331,15 3,14.331 3,13.5 v -3 C 3,9.669 2.331,9 1.5,9 Z m 7,0 C 7.669,9 7,9.669 7,10.5 v 3 C 7,14.331 7.669,15 8.5,15 9.3310003,15 10,14.331 10,13.5 v -3 C 10,9.669 9.3310003,9 8.5,9 Z m -7,1 C 1.777,10 2,10.223 2,10.5 v 3 C 2,13.777 1.777,14 1.5,14 1.223,14 1,13.777 1,13.5 v -3 C 1,10.223 1.223,10 1.5,10 Z m 7,0 C 8.777,10 9,10.223 9,10.5 v 3 C 9,13.777 8.777,14 8.5,14 8.223,14 8,13.777 8,13.5 v -3 C 8,10.223 8.223,10 8.5,10 Z M 5,13 c -0.554,0 -1,0.446 -1,1 0,0.554 0.446,1 1,1 0.554,0 1,-0.446 1,-1 0,-0.554 -0.446,-1 -1,-1 z m 6,-2 v 5 h 5 v -5 z m 1,1 h 1 v 1 h 1 v -1 h 1 v 2 h -1 v 1 h -1 v -1 h -1 z" fill="#c0bfbc" />
</svg>
