<?xml version="1.0" encoding="UTF-8"?>
<svg width="128" height="128" version="1.1" viewBox="0 0 128 128.00001" xmlns="http://www.w3.org/2000/svg">
<defs>
<linearGradient id="a" x1="2" x2="30" y1="27" y2="27" gradientTransform="matrix(4,0,0,4,0,-4)" gradientUnits="userSpaceOnUse">
<stop stop-color="#5e5c64" offset="0"/>
<stop stop-color="#9a9996" offset=".035714"/>
<stop stop-color="#5e5c64" offset=".071429"/>
<stop stop-color="#5e5c64" offset=".92857"/>
<stop stop-color="#9a9996" offset=".96429"/>
<stop stop-color="#5e5c64" offset="1"/>
</linearGradient>
</defs>
<rect x="8" y="24" width="112" height="24" ry="4" fill="#5e5c64"/>
<rect x="8" y="48" width="112" height="24" ry="4" fill="#5e5c64"/>
<rect x="8" y="72" width="112" height="24" ry="4.2348" fill="#5e5c64"/>
<rect x="8" y="92" width="112" height="20" ry="4" fill="url(#a)"/>
<rect x="8" y="12" width="112" height="20" ry="4" fill="#9a9996"/>
<rect x="8" y="36" width="112" height="20" ry="4" fill="#9a9996"/>
<rect x="8" y="60" width="112" height="20" ry="4" fill="#9a9996"/>
<rect x="8" y="84" width="112" height="20" ry="4" fill="#9a9996"/>
<rect x="56" y="16" width="60" height="12" ry="0" fill="#3d3846"/>
<rect x="56" y="20" width="60" height="8" ry="0" fill="#5e5c64"/>
<rect x="56" y="40" width="60" height="12" ry="0" fill="#3d3846"/>
<rect x="56" y="44" width="60" height="8" ry="0" fill="#5e5c64"/>
<rect x="56" y="64" width="60" height="12" ry="0" fill="#3d3846"/>
<rect x="56" y="68" width="60" height="8" ry="0" fill="#5e5c64"/>
<rect x="56" y="88" width="60" height="12" ry="0" fill="#3d3846"/>
<rect x="56" y="92" width="60" height="8" ry="0" fill="#5e5c64"/>
<rect x="16" y="16" width="4" height="8" ry="2" fill="#5e5c64"/>
<rect x="16" y="20" width="4" height="4" ry="2" fill="#f6d32d"/>
<rect x="24" y="16" width="4" height="8" ry="2" fill="#5e5c64"/>
<rect x="24" y="20" width="4" height="4" ry="2" fill="#33d17a"/>
<rect x="16" y="40" width="4" height="8" ry="2" fill="#5e5c64"/>
<rect x="16" y="44" width="4" height="4" ry="2" fill="#33d17a"/>
<rect x="24" y="40" width="4" height="8" ry="2" fill="#5e5c64"/>
<rect x="24" y="44" width="4" height="4" ry="2" fill="#e01b24"/>
<rect x="16" y="64" width="4" height="8" ry="2" fill="#5e5c64"/>
<rect x="16" y="68" width="4" height="4" ry="2" fill="#e01b24"/>
<rect x="24" y="64" width="4" height="8" ry="2" fill="#5e5c64"/>
<rect x="24" y="68" width="4" height="4" ry="2" fill="#f6d32d"/>
<rect x="16" y="88" width="4" height="8" ry="2" fill="#5e5c64"/>
<rect x="16" y="92" width="4" height="4" ry="2" fill="#f6d32d"/>
<rect x="24" y="88" width="4" height="8" ry="2" fill="#5e5c64"/>
<rect x="24" y="92" width="4" height="4" ry="2" fill="#33d17a"/>
<rect x="60" y="44" width="4" height="8" fill="#3d3846"/>
<rect x="60" y="40" width="4" height="4" fill="#241f31"/>
<rect x="68" y="44" width="4" height="8" fill="#3d3846"/>
<rect x="68" y="40" width="4" height="4" fill="#241f31"/>
<rect x="76" y="44" width="4" height="8" fill="#3d3846"/>
<rect x="76" y="40" width="4" height="4" fill="#241f31"/>
<rect x="84" y="44" width="4" height="8" fill="#3d3846"/>
<rect x="84" y="40" width="4" height="4" fill="#241f31"/>
<rect x="92" y="44" width="4" height="8" fill="#3d3846"/>
<rect x="92" y="40" width="4" height="4" fill="#241f31"/>
<rect x="100" y="44" width="4" height="8" fill="#3d3846"/>
<rect x="100" y="40" width="4" height="4" fill="#241f31"/>
<rect x="108" y="44" width="4" height="8" fill="#3d3846"/>
<rect x="108" y="40" width="4" height="4" fill="#241f31"/>
<rect x="60" y="20" width="4" height="8" fill="#3d3846"/>
<rect x="60" y="16" width="4" height="4" fill="#241f31"/>
<rect x="68" y="20" width="4" height="8" fill="#3d3846"/>
<rect x="68" y="16" width="4" height="4" fill="#241f31"/>
<rect x="76" y="20" width="4" height="8" fill="#3d3846"/>
<rect x="76" y="16" width="4" height="4" fill="#241f31"/>
<rect x="84" y="20" width="4" height="8" fill="#3d3846"/>
<rect x="84" y="16" width="4" height="4" fill="#241f31"/>
<rect x="92" y="20" width="4" height="8" fill="#3d3846"/>
<rect x="92" y="16" width="4" height="4" fill="#241f31"/>
<rect x="100" y="20" width="4" height="8" fill="#3d3846"/>
<rect x="100" y="16" width="4" height="4" fill="#241f31"/>
<rect x="108" y="20" width="4" height="8" fill="#3d3846"/>
<rect x="108" y="16" width="4" height="4" fill="#241f31"/>
<rect x="60" y="68" width="4" height="8" fill="#3d3846"/>
<rect x="60" y="64" width="4" height="4" fill="#241f31"/>
<rect x="68" y="68" width="4" height="8" fill="#3d3846"/>
<rect x="68" y="64" width="4" height="4" fill="#241f31"/>
<rect x="76" y="68" width="4" height="8" fill="#3d3846"/>
<rect x="76" y="64" width="4" height="4" fill="#241f31"/>
<rect x="84" y="68" width="4" height="8" fill="#3d3846"/>
<rect x="84" y="64" width="4" height="4" fill="#241f31"/>
<rect x="92" y="68" width="4" height="8" fill="#3d3846"/>
<rect x="92" y="64" width="4" height="4" fill="#241f31"/>
<rect x="100" y="68" width="4" height="8" fill="#3d3846"/>
<rect x="100" y="64" width="4" height="4" fill="#241f31"/>
<rect x="108" y="68" width="4" height="8" fill="#3d3846"/>
<rect x="108" y="64" width="4" height="4" fill="#241f31"/>
<rect x="60" y="92" width="4" height="8" fill="#3d3846"/>
<rect x="60" y="88" width="4" height="4" fill="#241f31"/>
<rect x="68" y="92" width="4" height="8" fill="#3d3846"/>
<rect x="68" y="88" width="4" height="4" fill="#241f31"/>
<rect x="76" y="92" width="4" height="8" fill="#3d3846"/>
<rect x="76" y="88" width="4" height="4" fill="#241f31"/>
<rect x="84" y="92" width="4" height="8" fill="#3d3846"/>
<rect x="84" y="88" width="4" height="4" fill="#241f31"/>
<rect x="92" y="92" width="4" height="8" fill="#3d3846"/>
<rect x="92" y="88" width="4" height="4" fill="#241f31"/>
<rect x="100" y="92" width="4" height="8" fill="#3d3846"/>
<rect x="100" y="88" width="4" height="4" fill="#241f31"/>
<rect x="108" y="92" width="4" height="8" fill="#3d3846"/>
<rect x="108" y="88" width="4" height="4" fill="#241f31"/>
<rect x="64" y="64" width="64" height="64" ry="4" fill="#f6f5f4"/>
<path d="m74 68c-3.324 0-6 2.676-6 6v12c0 3.324 2.676 6 6 6s6-2.676 6-6v-12c0-3.324-2.676-6-6-6zm0 4c1.108 0 2 0.892 2 2v12c0 1.108-0.892 2-2 2s-2-0.892-2-2v-12c0-1.108 0.892-2 2-2z" fill="#3d3846"/>
<rect x="84" y="84" width="8" height="8" ry="4" fill="#3d3846"/>
<path d="m102 68c-3.324 0-6 2.676-6 6v12c0 3.324 2.676 6 6 6s6-2.676 6-6v-12c0-3.324-2.676-6-6-6zm0 4c1.108 0 2 0.892 2 2v12c0 1.108-0.892 2-2 2s-2-0.892-2-2v-12c0-1.108 0.892-2 2-2z" fill="#3d3846"/>
<rect x="112" y="84" width="8" height="8" ry="4" fill="#3d3846"/>
<path d="m74 96c-3.324 0-6 2.676-6 6v12c0 3.324 2.676 6 6 6s6-2.676 6-6v-12c0-3.324-2.676-6-6-6zm0 4c1.108 0 2 0.892 2 2v12c0 1.108-0.892 2-2 2s-2-0.892-2-2v-12c0-1.108 0.892-2 2-2z" fill="#3d3846"/>
<rect x="84" y="112" width="8" height="8" ry="4" fill="#3d3846"/>
<path d="m102 96c-3.324 0-6 2.676-6 6v12c0 3.324 2.676 6 6 6s6-2.676 6-6v-12c0-3.324-2.676-6-6-6zm0 4c1.108 0 2 0.892 2 2v12c0 1.108-0.892 2-2 2s-2-0.892-2-2v-12c0-1.108 0.892-2 2-2z" fill="#3d3846"/>
</svg>
